<svg xmlns="http://www.w3.org/2000/svg" viewBox="0 0 500 500"><defs><style>.cls-1{fill:#fff;}.cls-2,.cls-3{fill:none;stroke-width:20px;}.cls-2{stroke:#1b1464;}.cls-14,.cls-2,.cls-3{stroke-miterlimit:10;}.cls-3{stroke:#c1272d;}.cls-4{font-size:24px;fill:#1b1464;font-family:GillSansMT-Bold, Gill Sans MT;font-weight:700;letter-spacing:0.1em;}.cls-5{letter-spacing:0.02em;}.cls-6{letter-spacing:0.1em;}.cls-7{letter-spacing:-0.05em;}.cls-8{letter-spacing:0.1em;}.cls-9{fill:#c1272d;}.cls-10{letter-spacing:-0.02em;}.cls-11{fill:#f7931e;}.cls-12{fill:#c69c6d;}.cls-13{fill:#fbb03b;}.cls-14{fill:#ffcb07;stroke:#000;}.cls-15{fill:#006837;}.cls-16{fill:#8c6239;}</style></defs><title>logo</title><g id="Layer_2" data-name="Layer 2"><circle class="cls-1" cx="250" cy="192.5" r="176.34"/><circle class="cls-2" cx="250" cy="192.5" r="177.5"/><circle class="cls-3" cx="250" cy="192.5" r="152.99"/><text class="cls-4" transform="translate(101.06 418.37) scale(1 1.25)">F<tspan class="cls-5" x="16.9" y="0">O</tspan><tspan class="cls-6" x="38.37" y="0">XHOLE</tspan><tspan class="cls-7" x="140.88" y="0"> </tspan><tspan class="cls-8" x="146.35" y="0">VETERANS</tspan><tspan class="cls-9"><tspan x="48.14" y="23.04">ASSOCI</tspan><tspan class="cls-10" x="157.77" y="23.04">A</tspan><tspan class="cls-6" x="176.02" y="23.04">TION</tspan></tspan></text><path class="cls-11" d="M123,141.24c-1.11-.2,7.35,20.69,18.95,35.46,11.15,15.66,25.45,25.2,25.55,22.65l28.66-55.65c2-1.56-14.06-7.65-33.28-7.64C144.15,135.21,122.23,140.45,123,141.24Z"/><path class="cls-12" d="M146.06,153.1c-.68-.12,4.47,12.59,11.53,21.59,6.79,9.53,15.49,15.34,15.55,13.79l17.44-33.88c1.23-1-8.56-4.66-20.26-4.65C158.9,149.42,145.57,152.61,146.06,153.1Z"/><path class="cls-11" d="M358,176.71c-7.5,10.53-16.41,18.29-21.48,21.47-2.48,1.55-4,2-4.07,1.18L327,188.67a0,0,0,0,0,0,0,1.11,1.11,0,0,0-.07-.16,0,0,0,0,1,0,0l-7.29-14.15h0l-6-11.64c-.16-.32-.33-.64-.5-1q-1.83-3.57-3.67-7.14s0,0,0,0l-.07-.13a0,0,0,0,1,0,0c-1.1-2.12-2.19-4.25-3.28-6.37q-1.12-2.16-2.23-4.32c-.57-.44.3-1.25,2.29-2.17,3.27-1.53,9.59-3.4,17.41-4.51,1.17-.17,2.36-.31,3.59-.44a96.83,96.83,0,0,1,10-.52c18.76-.86,40.68,4.38,39.87,5.17C378.07,141,369.62,161.93,358,176.71Z"/><path class="cls-12" d="M353.94,153.1c.68-.12-4.47,12.59-11.53,21.59-6.79,9.53-15.49,15.34-15.55,13.79l-17.44-33.88c-1.23-1,8.56-4.66,20.26-4.65C341.1,149.42,354.43,152.61,353.94,153.1Z"/><path class="cls-11" d="M347.74,226.3l-71.57,50.1-1.44,1-14.5,10.14a17.77,17.77,0,0,1-9.73,3.21H250a17.81,17.81,0,0,1-10.23-3.22l-14.5-10.14-1.44-1-71.57-50.1s.25-.73.74-2.08c.12-.34.26-.72.42-1.15s.41-1.12.65-1.77c.08-.21.17-.43.25-.66.44-1.16.94-2.49,1.51-4l.49-1.25c1-2.52,2.14-5.4,3.46-8.58.3-.73.61-1.48.93-2.24q1-2.37,2.1-4.91l.66-1.52c.6-1.38,1.23-2.81,1.89-4.26l.66-1.46c.21-.49.44-1,.67-1.48s.46-1,.69-1.5c.46-1,.93-2,1.42-3,.24-.53.5-1.07.76-1.61.68-1.43,1.37-2.88,2.09-4.34l.24-.49,1.06-2.13a3.18,3.18,0,0,1,.16-.32c.41-.83.82-1.65,1.25-2.48s1-1.89,1.45-2.84c1.93-3.72,4-7.49,6.08-11.25.13-.24.27-.47.41-.71q2.23-3.94,4.62-7.87,1.67-2.73,3.39-5.43t3.59-5.43c15.88-23.3,35.22-42.3,56.1-42.3h.5c20.69.29,39.85,19.18,55.6,42.29q1.83,2.7,3.6,5.45t3.38,5.41q2.37,3.9,4.61,7.85l.42.73c2.18,3.87,4.27,7.75,6.24,11.57q2.48,4.79,4.73,9.43,1.08,2.25,2.12,4.46c1.93,4.1,3.71,8,5.33,11.74C343.69,214.54,347.74,226.3,347.74,226.3Z"/><path d="M274.73,277.41l-14.5,10.14-3,2.13a12.33,12.33,0,0,1-6.69,2.25,4.09,4.09,0,0,1-.5,0,12.45,12.45,0,0,1-7.19-2.27l-3-2.13-14.5-10.14c6-5.48,14.88-8.93,24.73-8.93h.5C260.15,268.6,268.8,272,274.73,277.41Z"/><path class="cls-13" d="M235.36,235.42a78.07,78.07,0,0,1-11.53,41l-71.56-50.1A446.16,446.16,0,0,1,181.89,161,78.56,78.56,0,0,1,235.36,235.42Z"/><path class="cls-13" d="M347.74,226.3l-71.57,50.1a78.51,78.51,0,0,1,7.19-91.84q2.19-2.6,4.61-5a78.47,78.47,0,0,1,25.6-16.91h0q2.23-.9,4.53-1.68c2.18,3.87,4.27,7.75,6.24,11.57q2.48,4.79,4.73,9.43,1.08,2.25,2.12,4.46c1.93,4.1,3.71,8,5.33,11.74C343.69,214.54,347.74,226.3,347.74,226.3Z"/><path d="M225.57,221.41s-6.56,8.8-14.66,8.8-14.66-16.62-14.66-16.62a39.89,39.89,0,0,1,14.66-2.93C219,210.66,225.57,221.41,225.57,221.41Z"/><path d="M303.76,213.59s-6.56,16.62-14.66,16.62-14.66-8.8-14.66-8.8,6.56-10.75,14.66-10.75A39.89,39.89,0,0,1,303.76,213.59Z"/><polygon class="cls-14" points="180.22 328 184.09 335.85 192.76 337.11 186.49 343.23 187.97 351.86 180.22 347.78 172.47 351.86 173.95 343.23 167.68 337.11 176.34 335.85 180.22 328"/><polygon class="cls-14" points="319.78 328 323.66 335.85 332.32 337.11 326.05 343.23 327.53 351.86 319.78 347.78 312.03 351.86 313.51 343.23 307.24 337.11 315.9 335.85 319.78 328"/><polygon class="cls-14" points="250 331.07 257.75 346.78 275.08 349.3 262.54 361.52 265.5 378.78 250 370.63 234.5 378.78 237.46 361.52 224.92 349.3 242.25 346.78 250 331.07"/><path class="cls-15" d="M337,167.35s-4.77,2.22-12.65,5.2c-1.48.57-3.08,1.16-4.78,1.76h0a266,266,0,0,1-36.21,10.24,167.77,167.77,0,0,1-32.86,3.59,169.49,169.49,0,0,1-34-3.84h0A266.77,266.77,0,0,1,180.59,174h0q-2.55-.93-4.77-1.78c-7.38-2.82-11.81-4.88-11.81-4.88a43,43,0,0,0,6.71-11,38.25,38.25,0,0,0,1.62-4.71q.2-.75.42-1.53l0-.09c.36-1.27.77-2.58,1.21-3.93.18-.53.37-1.07.56-1.61s.45-1.29.7-1.94q1-2.62,2.19-5.35c9.34-21,29.57-45.37,73.06-45.37s63.63,24.22,73,45.23q1.18,2.66,2.15,5.22l.33.89c.11.3.21.59.31.88.46,1.28.88,2.53,1.25,3.74.16.51.31,1,.46,1.52.07.24.14.47.2.69q.22.77.42,1.5a35.92,35.92,0,0,0,1.55,4.53A43.65,43.65,0,0,0,337,167.35Z"/><path class="cls-16" d="M330.18,156c-14.31,5.25-54.28,18-80.18,18-25.38,0-64.28-12.21-79.29-17.67a38.25,38.25,0,0,0,1.62-4.71c.76-2.82,1.71-5.89,2.92-9.1,16.91,4.94,50.34,15.7,74.75,15.7,24.86,0,59.06-11.09,75.66-16,1.23,3.25,2.2,6.37,3,9.22A35.92,35.92,0,0,0,330.18,156Z"/><polygon class="cls-14" points="228.91 125.32 232.78 133.18 241.45 134.43 235.18 140.55 236.66 149.18 228.91 145.1 221.16 149.18 222.64 140.55 216.37 134.43 225.03 133.18 228.91 125.32"/><polygon class="cls-14" points="271.09 125.32 274.97 133.18 283.63 134.43 277.36 140.55 278.84 149.18 271.09 145.1 263.34 149.18 264.82 140.55 258.55 134.43 267.21 133.18 271.09 125.32"/></g></svg>